<?xml version="1.0" encoding="UTF-8"?>
<svg xmlns="http://www.w3.org/2000/svg" xmlns:xlink="http://www.w3.org/1999/xlink" viewBox="0 0 26 26">
  <defs>
    <style>
      .cls-1 {
        clip-path: url(#clippath-11);
      }

      .cls-2 {
        clip-path: url(#clippath-16);
      }

      .cls-3 {
        fill: #edded4;
      }

      .cls-3, .cls-4, .cls-5, .cls-6, .cls-7 {
        stroke-width: 0px;
      }

      .cls-8 {
        clip-path: url(#clippath-2);
      }

      .cls-9 {
        clip-path: url(#clippath-13);
      }

      .cls-10 {
        isolation: isolate;
      }

      .cls-11 {
        clip-path: url(#clippath-15);
      }

      .cls-12 {
        clip-path: url(#clippath-6);
      }

      .cls-4 {
        fill: none;
      }

      .cls-5 {
        fill: #eadad0;
      }

      .cls-13 {
        clip-path: url(#clippath-7);
      }

      .cls-14 {
        clip-path: url(#clippath-1);
      }

      .cls-15 {
        clip-path: url(#clippath-4);
      }

      .cls-16 {
        clip-path: url(#clippath-12);
      }

      .cls-6 {
        fill: #5f3d3e;
      }

      .cls-17 {
        clip-path: url(#clippath-9);
      }

      .cls-18 {
        clip-path: url(#clippath);
      }

      .cls-19 {
        clip-path: url(#clippath-3);
      }

      .cls-20 {
        clip-path: url(#clippath-8);
      }

      .cls-21 {
        clip-path: url(#clippath-14);
      }

      .cls-22 {
        clip-path: url(#clippath-17);
      }

      .cls-23 {
        clip-path: url(#clippath-5);
      }

      .cls-7 {
        fill: #faeee6;
      }

      .cls-24 {
        clip-path: url(#clippath-10);
      }

      .cls-25 {
        mix-blend-mode: multiply;
      }
    </style>
    <clipPath id="clippath">
      <polygon class="cls-4" points="2.32 4.61 7.91 4.61 14.69 5.79 17.98 9.93 21.8 16.41 22.05 18.48 22.58 20.87 16.43 21.39 5.5 19.97 3.13 11.17 2.32 4.61"/>
    </clipPath>
    <clipPath id="clippath-1">
      <rect class="cls-4" x="-42.93" y="-7.35" width="149.73" height="102.45"/>
    </clipPath>
    <clipPath id="clippath-2">
      <rect class="cls-4" x="-42.93" y="-7.35" width="149.73" height="102.45"/>
    </clipPath>
    <clipPath id="clippath-3">
      <rect class="cls-4" x="-42.93" y="-7.35" width="149.73" height="102.45"/>
    </clipPath>
    <clipPath id="clippath-4">
      <rect class="cls-4" x="-1.97" y="23.74" width="70.35" height="3.69"/>
    </clipPath>
    <clipPath id="clippath-5">
      <rect class="cls-4" x="-1.98" y="23.77" width="70.36" height="3.68"/>
    </clipPath>
    <clipPath id="clippath-6">
      <rect class="cls-4" x="-1.98" y="23.79" width="70.38" height="3.66"/>
    </clipPath>
    <clipPath id="clippath-7">
      <rect class="cls-4" x="-1.98" y="23.8" width="70.4" height="3.65"/>
    </clipPath>
    <clipPath id="clippath-8">
      <rect class="cls-4" x="-1.96" y="23.8" width="70.42" height="3.64"/>
    </clipPath>
    <clipPath id="clippath-9">
      <rect class="cls-4" x="-1.95" y="23.79" width="70.44" height="3.62"/>
    </clipPath>
    <clipPath id="clippath-10">
      <rect class="cls-4" x="-1.93" y="23.77" width="70.46" height="3.61"/>
    </clipPath>
    <clipPath id="clippath-11">
      <rect class="cls-4" x="-1.9" y="23.74" width="70.48" height="3.6"/>
    </clipPath>
    <clipPath id="clippath-12">
      <rect class="cls-4" x="-1.87" y="23.7" width="70.5" height="3.59"/>
    </clipPath>
    <clipPath id="clippath-13">
      <rect class="cls-4" x="-1.83" y="23.66" width="70.52" height="3.59"/>
    </clipPath>
    <clipPath id="clippath-14">
      <rect class="cls-4" x="-1.79" y="23.61" width="70.53" height="3.58"/>
    </clipPath>
    <clipPath id="clippath-15">
      <rect class="cls-4" x="-1.75" y="23.56" width="70.55" height="3.57"/>
    </clipPath>
    <clipPath id="clippath-16">
      <rect class="cls-4" x="-1.7" y="23.5" width="70.57" height="3.57"/>
    </clipPath>
    <clipPath id="clippath-17">
      <rect class="cls-4" x="-1.65" y="23.44" width="70.59" height="3.56"/>
    </clipPath>
  </defs>
  <g class="cls-10">
    <g id="Layer_1" data-name="Layer 1">
      <rect class="cls-7" x="0" y="0" width="26" height="26"/>
      <g class="cls-18">
        <g class="cls-14">
          <g class="cls-8">
            <rect class="cls-7" x="-42.49" y="-7.35" width="149.28" height="102.45"/>
            <g class="cls-19">
              <path class="cls-6" d="M9.77,19.5s-.17,0-.36-.01c-.68-.02-1.16-.04-1.71-.08-.23-.02-.75-.07-.97-.1-.05,0-.1-.01-.12-.01-.01,0-.02,0-.01,0,0,0,.11,0,.23.01.33.03.52.03,1.46.03.47,0,.99,0,1.16,0,.17,0,.55.01.84.02.49.01.63.02,1.09.04.24.01.99.03,1.35.04.35,0,.33.01-.21.03-.61.02-1.59.04-2.19.04-.31,0-.56,0-.57,0M6.56,19.29s.02,0,.03,0c0,0,0,0-.01,0s-.02,0-.01,0M16.33,19.22c-.85,0-1.09-.02-1.61-.07-.16-.02-.21-.02-.35-.06-.18-.04-.37-.12-.44-.18-.1-.09-.15-.15-.2-.28-.1-.25-.11-.68,0-.94.08-.19.17-.31.32-.41.25-.17.59-.25,1.13-.26.21,0,.64,0,.73.02.05,0,.09.02.08.03,0,0-.06,0-.12.01-.07,0-.18.02-.29.04-.23.04-.39.07-.55.09-.27.03-.41.06-.57.12-.18.06-.32.14-.41.24-.15.15-.21.32-.22.53,0,.11.01.19.05.31.03.09.13.31.18.37.08.11.33.23.61.28.09.02.12.02.31.02.4,0,.94-.07,1.33-.16.13-.03.33-.07.54-.11.07-.01.15-.03.18-.03.03,0,.1-.01.15-.01.08,0,.1,0,.16.02.13.05.18.07.33.18.19.13.22.15.22.12,0-.05-.11-.17-.2-.22-.16-.1-.35-.17-.51-.19-.09-.01-.17-.03-.45-.13-.38-.13-.62-.2-.8-.25-.45-.11-.68-.14-.95-.12-.11,0-.24.03-.29.04-.01,0-.02,0-.02,0,0,0,.17-.04.3-.06.11-.02.15-.02.36-.02.26,0,.23,0,.68.06.32.04.87.21,1.29.39.26.11.38.14.57.14.14,0,.25-.02.39-.09.03-.01.07-.03.1-.04.41-.19.67-.29.86-.32.13-.02.32-.02.39,0,.03,0,.06.02.07.02.02,0,.02,0,.02-.03,0-.03-.02-.07-.06-.12-.02-.02-.02-.03-.01-.02.01,0,.02.01.02.02s0,0,0,0c0,0,.02-.08.02-.11,0-.03-.07-.14-.11-.2-.05-.06-.12-.12-.19-.16-.05-.03-.05-.03-.14-.03s-.09,0-.14.03c-.08.05-.25.23-.23.25,0,0,.06,0,.1-.01.05-.02.09-.02.09-.01,0,.02-.09.05-.16.06-.02,0-.04.02-.07.05-.05.05-.12.1-.18.13-.02.01-.05.03-.07.04-.19.11-.39.12-.67.05-.16-.04-.43-.13-.62-.19-.22-.08-.61-.2-.74-.24-.18-.05-.34-.08-.59-.12-.39-.05-.54-.06-.91-.03-.02,0-.03,0-.02,0,0,0,.05-.02.08-.03.08-.03.27-.07.4-.09.19-.03.5-.03.77,0,.21.03.51.1.93.22.13.04.25.07.26.08.02,0,.09.03.17.06.26.08.37.11.51.13.25.02.37-.04.56-.28.18-.24.3-.32.48-.33.15,0,.29.05.42.18.08.07.11.13.21.35.07.17.1.21.11.21.01,0,.05,0,.1,0,.09,0,.26.01.37.02.15.02.33.07.46.14.19.1.39.28.49.45.05.09.1.26.07.3-.01.02-.04.02-.29.03-.25.01-.38.01-1.43.04-1.03.03-1.15.03-1.39.04-.26.01-.77.01-1.99,0ZM6.14,18.9s.03-.01.03-.01,0,0-.02.01c-.03.01-.04.01-.02,0M8.93,18.71s-.22-.23-.27-.29c-.06-.07-.15-.16-.22-.22-.04-.03-.1-.08-.13-.11-.03-.03-.08-.07-.1-.09-.05-.05-.08-.07-.09-.05,0,0-.01.05-.02.1,0,.05-.01.12-.02.14,0,.05,0,.05,0-.04,0-.12-.01-.24-.03-.27-.02-.04-.09-.15-.14-.21-.02-.03-.07-.09-.11-.13-.04-.04-.1-.12-.15-.18-.05-.05-.09-.11-.1-.13,0-.02-.02-.03-.02-.03,0,0,0-.01,0-.02,0-.02-.05-.08-.06-.07,0,0,0,.05,0,.1,0,.06,0,.12-.02.17,0,.04-.02.12-.03.16,0,.05-.04.16-.07.24-.03.09-.06.2-.08.25-.03.1-.13.33-.15.36,0,0-.02.05-.04.08-.01.04-.03.07-.03.08-.01.01-.01.01,0-.03,0-.02.01-.08.02-.12.02-.11.04-.21.05-.31,0-.05.02-.15.04-.22.09-.44.13-.64.12-.81,0-.08-.02-.12-.1-.24-.03-.04-.07-.1-.08-.12-.04-.07-.2-.28-.34-.44-.13-.15-.17-.21-.3-.35-.19-.22-.32-.4-.4-.55-.09-.18-.11-.27-.06-.39.05-.13.14-.23.24-.29.03-.01.1-.04.17-.06.15-.05.17-.07.23-.2.06-.13.13-.22.24-.29.18-.13.49-.18.72-.13.12.03.24.06.32.1.11.05.38.15.51.19.12.04.25.07.32.07.09,0,.76-.1,1.07-.16.23-.05.87-.16.97-.17.37-.05.6-.1.69-.16.05-.03.16-.12.23-.19.12-.11.29-.27.41-.37.21-.18.43-.3.62-.34.1-.02.45-.03.44,0,0,0-.04.02-.07.03-.14.04-.33.12-.43.18-.13.08-.61.43-.79.59-.03.02-.05.04-.06.04s0,0,0,0c0,0-.02.03-.05.05-.03.02-.07.06-.1.08-.05.04-.17.14-.24.19-.02.01-.05.03-.06.04-.01.01-.03.03-.05.04-.02.01-.06.04-.08.06-.07.05-.14.1-.15.1,0,0,.03-.04.08-.08.05-.04.09-.09.11-.1.01-.01.03-.03.05-.04.02-.01.03-.02.02-.03,0,0,0-.03.02-.05.03-.04.02-.04-.04,0-.06.03-.15.06-.29.08-.06.01-.14.02-.18.03-.04,0-.14.03-.22.05-.2.04-.35.08-.53.13-.19.06-.21.06-.45.16-.22.09-.29.11-.43.14-.05.01-.2.05-.32.08-.29.07-.33.08-.49.08-.22,0-.47-.01-.9-.08-.34-.05-.5-.05-.72,0-.1.02-.2.05-.25.09-.07.04-.14.12-.18.18-.09.15-.08.28.05.53.07.15.14.25.29.45.13.18.14.18.22.27.04.04.11.12.15.17.05.05.12.14.17.19.05.05.1.11.12.13.04.05.24.29.32.37.04.04.07.08.07.08s.03.04.07.09c.06.07.11.13.28.33.03.03.07.09.1.11.02.03.06.07.07.08.01.02.03.05.05.06.01.01.04.05.07.08.03.03.05.07.06.07,0,0,.03.03.05.06.02.03.07.08.1.11.13.14.19.22.27.36.03.04.1.15.12.18.03.04.01.03-.03,0M9.08,18.67s-.05-.06-.08-.09c-.03-.03-.08-.08-.1-.12-.06-.09-.13-.18-.31-.38-.12-.14-.18-.21-.3-.36-.06-.08-.17-.21-.25-.3-.07-.09-.16-.2-.2-.25-.04-.05-.09-.12-.12-.15-.03-.03-.07-.09-.09-.12-.03-.03-.05-.06-.05-.07-.04-.05-.1-.14-.14-.19-.06-.09-.12-.17-.18-.24-.14-.17-.14-.18-.34-.47-.14-.21-.23-.37-.27-.5-.02-.06-.02-.08-.02-.14,0-.08.01-.1.06-.17.02-.04.08-.09.13-.11.06-.03.1-.04.18-.04.09,0,.22.03.28.06.02.01.04.02.05.02.04,0,.12.05.18.11.07.06.13.14.12.14,0,0-.02-.01-.03-.04s-.05-.05-.07-.06c-.02-.01-.05-.04-.08-.05-.04-.03-.15-.1-.15-.09,0,0-.03,0-.06-.02-.16-.05-.25-.05-.32-.02-.05.02-.05.03-.08.08-.05.11-.03.21.11.45.07.12.21.32.41.59.08.1.21.27.22.3,0,0,.09.12.18.24.09.12.21.28.26.35.05.07.12.16.16.19.04.04.07.08.08.11.04.09.27.47.35.58.01.01.03.05.04.07.01.03.07.11.11.18.05.07.11.18.15.24.03.06.08.15.11.2.06.09.07.13.02.07ZM14.14,18.5s.07-.06.1-.08c.1-.07.11-.07.04-.02-.02.02-.04.03-.04.03,0,0-.03.02-.06.05-.07.06-.09.07-.04.02M9.95,18.46s-.04-.04-.04-.05c0-.01-.07-.1-.14-.19-.07-.08-.1-.13-.26-.32-.08-.09-.15-.17-.25-.29-.08-.09-.2-.23-.28-.33-.02-.02-.07-.08-.12-.13-.15-.16-.21-.24-.28-.35-.04-.06-.08-.12-.09-.13,0-.01-.03-.05-.06-.09-.08-.1-.12-.18-.17-.29-.03-.06-.06-.13-.08-.17-.02-.04-.04-.09-.06-.13-.07-.16-.16-.34-.24-.46-.04-.07-.09-.14-.1-.17-.03-.05-.14-.21-.18-.27-.02-.03-.04-.06-.04-.06,0,0,.03,0,.12.01.04,0,.11.02.17.03.06,0,.15.02.2.03.29.05.42.06.53.08.48.05.99.03,1.36-.03.19-.04.28-.06.61-.18.18-.06.33-.08.73-.1.14,0,.33-.01.42-.02.09,0,.29-.01.45-.02.16,0,.3-.01.31-.01.02,0,.48-.03.53-.03.04,0,.01,0-.08.02-.05,0-.19.04-.31.06-.12.02-.3.06-.41.08-.1.02-.29.05-.41.07-.42.06-.86.14-1.08.2-.33.09-.72.16-.99.18-.42.03-.86.03-1.11,0-.14-.02-.35-.05-.49-.09-.06-.01-.1-.02-.11-.02,0,0,.02.05.07.12.08.11.13.18.19.29.11.22.24.44.33.58.05.08.17.24.29.4.04.05.08.11.09.12,0,.01.03.04.05.07.02.03.07.08.1.11.03.04.08.09.1.12.11.12.2.26.43.63.21.33.33.53.37.6t0,0s-.03-.03-.04-.05c-.02-.02-.04-.05-.06-.07-.03-.05-.06-.07-.09-.07-.03,0-.03.04.01.13.05.12.05.12.09.16.04.05.03.05-.01,0M11.38,18.34s-.09-.02-.14-.03c-.12-.03-.19-.04-.34-.06-.07,0-.13-.02-.13-.02,0,0,.05-.01.17-.02.06,0,.17-.02.25-.03.28-.04.5-.03.89.04.15.03.3.05.4.06.06,0,.09.01.08.02,0,0-.1,0-.22.01-.12,0-.32.02-.44.03-.24.02-.42.02-.5,0M14.37,18.34s.02-.01.02-.01c.01,0,0,0-.02.02-.02,0-.02,0,0,0M14.62,18.24s.01,0,.02,0c0,0,0,0-.01,0,0,0-.01,0,0,0M19.57,18.1s-.14-.1-.18-.12c-.03-.02-.18-.06-.21-.06,0,0-.02,0-.02-.01,0-.02.09,0,.18.03.06.02.1.04.14.07.03.02.06.05.07.06.01,0,.03.02.03.03.01.02.02.04.02.04,0,0-.02-.02-.04-.03ZM7.37,18.05s0-.02,0-.03c0-.01,0-.01,0,0,0,0,0,.02,0,.03,0,.01,0,.01,0,0M7.39,18s.02-.09.03-.08c0,0,0,.02-.01.05,0,.02-.02.04-.02.03M22.58,17.94c-.11-.04-.22-.24-.22-.38,0-.04,0-.07.03-.14.05-.14.17-.5.17-.51,0-.02.1-.31.2-.6.06-.16.13-.38.17-.48.07-.22.07-.22-.02-.21-.22.02-.6.04-.72.04-.09,0-.36-.03-.41-.04-.04-.01-.05-.02-.06-.07-.01-.06,0-.14.02-.16.03-.03.06-.04.32-.03.18,0,.29,0,.44,0,.26-.01.58-.04.6-.05.03-.01.04-.05.19-.47.09-.26.15-.4.22-.62.03-.07.09-.26.15-.42.05-.16.12-.35.16-.44.03-.09.08-.23.11-.31.03-.09.07-.19.08-.24s.07-.19.12-.33c.05-.14.1-.3.12-.36.02-.06.06-.17.09-.24s.07-.2.1-.28c.03-.08.09-.27.15-.42.09-.27.2-.56.25-.69.05-.13.1-.16.25-.16.11,0,.15.01.22.06.07.05.1.09.15.18.04.07.04.08.04.14,0,.07.01.04-.18.52-.03.09-.12.31-.19.5s-.17.44-.21.56c-.05.12-.15.4-.23.61-.14.4-.32.85-.34.9,0,.01-.02.04-.02.05,0,.02-.02.07-.04.11-.02.05-.04.1-.04.12,0,.03-.16.46-.28.8-.06.18-.07.21-.06.21.01,0,.32-.09.46-.13.14-.04.33-.12.44-.17.13-.06.47-.24.61-.33.04-.03.12-.08.18-.11.22-.14.35-.22.38-.25.02-.02.06-.05.09-.07.25-.17.68-.57.95-.87.28-.32.37-.45.62-.9.15-.28.28-.67.32-1.01.02-.14.02-.37,0-.48-.02-.15-.07-.31-.12-.43-.14-.28-.36-.47-.68-.61-.27-.11-.56-.16-.96-.16-.24,0-.42.01-.66.04-.16.02-.38.06-.43.08-.01,0-.07.02-.13.04-.25.06-.44.13-.71.24-.28.12-.36.16-.5.24-.07.04-.13.07-.14.08-.01,0-.19.11-.23.14-.15.09-.44.31-.57.43-.03.02-.08.08-.13.12-.17.15-.44.44-.53.55-.3.39-.43.65-.52,1-.02.08-.02.1-.02.25,0,.13,0,.17.02.24.05.22.16.38.33.51.08.06.21.15.23.15.01,0,0,.03-.01.04-.02.01-.03.01-.13,0-.14-.02-.18-.03-.28-.07-.34-.13-.63-.43-.72-.75-.06-.19-.06-.31-.03-.51.06-.35.22-.7.5-1.05.18-.23.46-.51.74-.74.14-.11.21-.17.25-.2.02-.01.04-.03.05-.04.01-.01.07-.05.13-.09.06-.04.13-.09.16-.1.09-.06.22-.14.28-.17.03-.02.08-.05.12-.06.13-.08.5-.24.66-.3.11-.04.27-.09.33-.11.04-.01.12-.04.19-.06.32-.09.74-.18,1.05-.2.05,0,.13-.01.18-.02.14-.02.55-.01.72,0,.17.02.28.03.39.05.18.04.43.11.56.17.04.02.07.03.07.03.01,0,.14.06.24.12.35.19.6.41.74.65.12.21.17.35.21.63.03.2,0,.54-.05.79-.04.16-.06.24-.13.4-.06.16-.09.22-.16.32-.04.07-.06.09-.13.19-.27.39-.58.72-1.02,1.1-.03.02-.07.06-.11.09-.08.07-.27.22-.32.26-.19.14-.45.32-.62.42-.07.04-.15.09-.18.11-.08.05-.53.28-.65.33-.36.16-.55.23-.8.3-.25.07-.53.16-.6.18-.02,0-.05.03-.06.04,0,.01-.03.06-.04.1-.01.04-.05.15-.08.24-.03.09-.1.28-.15.44-.05.15-.11.32-.12.36-.06.18-.09.26-.14.41-.13.39-.29.82-.33.9-.03.07-.04.07-.18.07-.08,0-.12,0-.14-.01M7.43,17.86s0-.01,0,0c0,0,0,.01,0,.02,0,0,0,0,0-.01ZM40.54,17.76c-.3-.07-.47-.27-.42-.52.02-.1.1-.23.21-.37.13-.16.44-.45.64-.59.12-.08.4-.26.59-.36.11-.06.14-.08.14-.1,0-.01-.05-.07-.18-.2-.2-.2-.3-.31-.35-.38-.02-.03-.04-.05-.04-.05-.02,0-.08.04-.08.05,0,.01-.27.27-.37.36-.18.16-.52.42-.63.5-.14.09-.46.28-.56.33-.11.05-.34.12-.46.14-.03,0-.13.01-.22.01-.14,0-.16,0-.24-.01-.25-.05-.47-.16-.63-.32-.12-.12-.18-.24-.2-.37,0-.03,0-.06-.01-.07,0,0-.03.02-.06.05-.2.21-.3.3-.42.41-.04.04-.1.09-.14.12-.14.12-.29.21-.43.25-.07.02-.23.04-.3.02-.11-.02-.25-.09-.32-.15-.04-.04-.1-.12-.13-.18-.04-.1-.06-.16-.06-.31,0-.14,0-.18.03-.31.02-.08,0-.08-.04-.03-.2.23-.56.54-.82.69-.11.06-.15.08-.26.11-.09.02-.27.02-.36,0-.26-.07-.43-.25-.5-.53-.02-.06-.02-.09-.02-.25,0-.17,0-.18.02-.21.01-.02.02-.05.02-.07t-.01-.02s-.04.04-.07.06-.06.06-.07.08c-.02.04-.29.33-.41.44-.21.2-.46.37-.63.43-.07.02-.19.04-.29.05-.2.01-.35-.05-.48-.19-.1-.11-.14-.2-.14-.36,0-.05,0-.1,0-.1,0,0-.06.05-.12.11-.06.06-.13.12-.15.14-.02.01-.05.04-.08.06-.13.11-.38.28-.52.37-.11.07-.12.07-.26.12-.13.05-.25.07-.4.07-.13,0-.18,0-.3-.05-.27-.09-.44-.29-.52-.57-.03-.11-.04-.4-.02-.49,0-.05,0-.06,0-.06-.02-.01-.05.01-.12.08-.03.04-.11.11-.17.16-.06.05-.15.14-.21.19-.14.13-.24.21-.45.35-.14.1-.36.18-.54.21-.09.02-.25.02-.31,0-.16-.04-.31-.17-.37-.33-.04-.09-.04-.15-.03-.26.03-.26.06-.42.15-.66.08-.23.18-.46.38-.86.1-.2.15-.3.18-.4.07-.19.12-.22.31-.22.09,0,.11,0,.15.02.1.04.17.18.16.28,0,.09-.07.22-.36.82-.21.43-.26.54-.32.71-.09.25-.12.44-.09.54.02.05.08.12.12.14.06.03.14,0,.29-.07.13-.06.21-.12.47-.33.04-.03.11-.08.15-.12.1-.08.14-.12.32-.29.07-.07.14-.13.16-.15.05-.04.17-.17.2-.22.02-.03.03-.06.04-.11.06-.33.12-.54.36-1.28.09-.27.13-.38.28-.75.18-.45.22-.51.35-.77.31-.58.57-.98.92-1.42.13-.16.27-.31.37-.4.03-.02.06-.06.08-.07.02-.02.05-.04.08-.06.02-.02.06-.04.08-.05.04-.03.14-.07.22-.1.04-.02.07-.02.16-.02.1,0,.11,0,.16.03.17.08.22.26.18.55-.03.2-.1.5-.14.56,0,0,0,.03,0,.03,0,.06-.23.59-.36.82-.02.03-.05.09-.07.14-.02.05-.06.12-.09.16s-.06.1-.07.13c-.1.17-.26.43-.33.53-.05.07-.14.19-.28.37-.19.25-.46.54-.72.78-.07.06-.23.19-.34.27-.04.03-.08.06-.09.07-.02.02-.02.05-.11.4-.05.21-.11.47-.14.68-.02.13-.02.17-.02.32,0,.19,0,.23.05.33.03.06.1.13.18.17.05.02.06.03.13.03.07,0,.09,0,.16-.02.11-.04.29-.12.41-.19.23-.13.41-.28.68-.56.18-.19.33-.36.4-.49.04-.07.09-.15.19-.29.13-.19.38-.48.56-.63.23-.2.51-.36.75-.45.17-.06.29-.08.47-.08.11,0,.14,0,.19.02.14.04.22.08.3.16.08.08.11.13.11.19,0,.04,0,.05-.02.07-.03.03-.07.05-.09.03-.03-.04-.13-.1-.23-.14-.18-.07-.52,0-.77.19-.1.07-.29.24-.38.33-.11.12-.27.32-.42.55-.07.1-.08.12-.16.28-.12.24-.17.4-.17.53,0,.07,0,.1.05.15.05.07.1.08.19.05.11-.03.36-.18.48-.3.02-.01.06-.06.1-.09.11-.1.27-.26.45-.45.04-.05.1-.11.12-.14.1-.11.32-.41.47-.62.09-.13.1-.14.17-.2.04-.03.05-.04.08-.03.02,0,.05.01.06.02.05.03.11.1.14.17.03.06.03.07.03.14,0,.09,0,.09-.12.42-.08.23-.16.5-.2.63-.02.08-.02.11-.02.22,0,.12,0,.14.02.18.02.05.09.12.14.15.04.02.13.03.17.01.11-.04.35-.17.47-.27.07-.06.22-.2.36-.33.12-.11.41-.42.44-.47.03-.04.04-.05.12-.34.09-.3.14-.45.26-.76.04-.11.1-.26.14-.35.15-.39.33-.82.36-.89.04-.08.06-.13.05-.14,0,0-.02,0-.05,0-.02,0-.1.02-.17.02-.07,0-.18.01-.23.02-.05,0-.2.01-.32.02-.12,0-.22,0-.23.01,0,0-.1,0-.21,0-.21,0-.28,0-.39-.04-.07-.02-.1-.03-.16-.07-.08-.05-.12-.13-.12-.21v-.03s.13,0,.13,0c.07,0,.26,0,.42,0,.41,0,.97,0,1.35-.04.1,0,.12-.01.14-.03.03-.02.05-.08.13-.26.03-.07.06-.14.07-.16,0-.02.04-.08.06-.14.07-.18.2-.47.27-.64.01-.02.04-.08.05-.12.02-.04.04-.1.05-.12.01-.02.04-.09.06-.14s.06-.12.07-.16c.08-.17.12-.21.26-.23.11-.01.22,0,.29.06.04.03.12.16.12.19,0,.02-.02.06-.11.26-.04.08-.08.17-.09.19-.02.05-.1.22-.13.3-.05.12-.25.55-.29.64-.05.1-.06.13-.05.14,0,0,.04,0,.09,0,.22-.03,1.02-.04,1.45-.02.2.01.23.02.33.04.06.02.13.04.15.04.12.05.28.14.29.17,0,.03,0,.04-.08.02-.04,0-.09-.02-.11-.02-.05,0-.97-.01-1.09,0-.15,0-.49.04-.65.05-.09,0-.24.02-.34.03-.1,0-.19.02-.2.02-.03.01-.06.05-.08.1-.05.1-.17.37-.26.58-.05.11-.25.56-.26.59,0,.01-.03.08-.06.15-.07.17-.18.42-.27.6-.1.21-.14.32-.25.66-.21.63-.26.91-.21,1.06.02.05.08.12.11.14.03.01.09.02.15,0,.06-.01.21-.09.31-.17.18-.13.38-.32.55-.54.06-.07.19-.22.25-.29.07-.08.1-.13.17-.26.21-.42.59-.8,1.02-1.04.34-.18.61-.27.85-.27.2,0,.37.09.47.24.07.11.09.22.07.34-.03.12-.13.3-.26.43-.09.09-.17.15-.38.28-.1.06-.31.15-.41.18-.21.06-.58.1-.74.09-.11-.01-.12,0-.17.17-.1.36-.02.6.23.72.15.07.37.08.59,0,.27-.09.57-.25.9-.5.29-.22.37-.29.94-.84l.05-.05v-.12c0-.09,0-.13.02-.18.03-.13.11-.25.24-.38.24-.23.53-.41.79-.47.2-.05.22-.05.44-.05h.2l.1.03c.15.04.23.07.29.14.06.06.09.11.08.16,0,.06-.02.06-.14.03-.21-.05-.37-.05-.61,0-.18.04-.31.1-.47.19-.22.13-.37.32-.4.51-.02.16.05.33.25.56.08.09.25.28.28.29.01,0,.02,0,.04-.02.09-.07.17-.11.44-.21.16-.06.22-.07.46-.14.16-.04.25-.06.43-.08.3-.04.42-.04.55,0,.09.03.07.04-.07.04-.1,0-.2.02-.4.06-.23.05-.6.17-.76.23-.01,0-.05.02-.08.03-.1.04-.44.19-.45.2,0,0,0,.04.06.14.11.22.15.36.14.54,0,.19-.06.32-.2.53-.05.07-.09.12-.17.2-.12.12-.18.17-.28.24-.3.2-.58.31-.94.36-.11.01-.31.02-.38,0ZM40.74,17.54c.15-.03.42-.15.54-.23.02-.02.07-.05.12-.08.13-.09.29-.25.36-.36.07-.11.14-.27.17-.38.04-.15,0-.41-.06-.48-.02-.02-.05-.02-.1.01-.03.02-.08.04-.11.06-.04.02-.07.04-.08.05-.01,0-.06.03-.1.06-.16.09-.39.25-.61.42-.17.13-.4.41-.46.54-.01.03-.03.07-.04.09-.03.05-.02.12,0,.17.03.06.07.1.12.12.03.02.05.02.12.02.05,0,.11,0,.14-.01M38.66,15.23c.28-.04.51-.13.72-.27.22-.14.35-.29.45-.48.07-.14.09-.22.05-.29-.04-.07-.1-.09-.22-.07-.18.04-.32.11-.49.25-.11.09-.34.32-.4.39-.05.07-.28.42-.28.45,0,.03,0,.04.05.03.02,0,.07-.01.11-.02M30.58,14.09c.08-.07.47-.45.55-.54.14-.16.4-.51.5-.66.04-.06.24-.4.3-.5.02-.03.06-.1.08-.15.19-.34.35-.7.46-1.05.09-.29.12-.42.12-.63,0-.16,0-.18-.08-.14-.04.02-.19.16-.27.26-.19.22-.59.8-.75,1.07-.08.14-.19.35-.22.41-.01.03-.19.41-.23.5-.02.05-.2.5-.25.64-.07.2-.18.52-.18.54,0,.02-.04.12-.07.2-.01.03-.03.07-.03.08,0,.02,0,.02.02.01.01,0,.04-.03.06-.05ZM8.26,17.17s0-.09,0-.14c0-.03.01-.1.02-.15,0-.06.01-.1.01-.09,0,.01,0,.08,0,.14,0,.07-.01.13,0,.14,0,.02,0,.11-.01.1M16.1,17.01s0-.04,0-.07c0-.06-.04-.48-.05-.6-.04-.27-.11-.44-.25-.62-.05-.06-.14-.14-.2-.17-.1-.05-.23-.07-.43-.06-.06,0-.17,0-.24,0-.11,0-.14-.01-.22-.04-.14-.05-.2-.07-.29-.13-.1-.06-.29-.21-.29-.24,0,0,.04.02.08.05.09.06.22.12.32.15.11.04.18.04.37.04.09,0,.24,0,.33-.01.18,0,.26,0,.37.03.07.02.19.06.19.07,0,0,0,0,0,0,.02,0,.12.07.17.12.09.09.18.23.22.35,0,.03.03.1.04.15.02.09.02.11.02.24,0,.15-.02.23-.06.45-.01.07-.03.16-.04.2-.01.09-.02.11-.03.07M51.22,16.77c-.17-.02-.29-.06-.46-.14-.11-.05-.13-.05-.18,0-.03.02-.05.04-.07.05-.04,0-.37.02-.41.01-.02,0-.03-.01-.04-.02-.01-.02,0-5.41,0-5.44,0-.01.01-.02.02-.03.01,0,.1,0,.25,0,.19,0,.24,0,.25.01.02.01.02.03.01,1.47,0,1.37,0,1.45.01,1.45,0,0,.05-.02.1-.04.24-.12.38-.16.65-.19.25-.03.6.01.79.09.16.06.27.13.4.24.22.19.32.35.39.64.04.16.06.45.04.58,0,.03-.01.07-.01.1-.02.2-.1.42-.21.59-.09.14-.3.34-.44.42-.21.13-.41.19-.7.22-.15.02-.26.01-.39,0ZM51.45,16.6c.24-.03.43-.11.6-.26.16-.15.27-.35.32-.6.06-.27.05-.65,0-.86-.04-.15-.12-.32-.18-.41-.14-.2-.32-.3-.62-.37-.18-.04-.48,0-.69.09-.15.06-.25.12-.27.14-.02.02-.02.04-.02.79,0,.42,0,.86,0,.97,0,.22,0,.22.08.27.08.06.26.15.38.19.15.05.25.06.39.04M57.3,16.75s-.08-.01-.14-.02c-.15-.02-.19-.04-.33-.11-.15-.07-.28-.16-.28-.19,0-.03.02-.06.06-.1.02-.02.05-.04.05-.04,0,0,.02.01.04.03.05.03.26.14.34.17.09.03.24.07.33.08.16.02.36-.02.52-.1.15-.08.26-.23.26-.38,0-.13-.07-.25-.2-.34-.06-.04-.25-.14-.5-.25-.46-.21-.63-.32-.76-.5-.09-.13-.12-.22-.12-.36,0-.09.02-.14.06-.22.05-.09.19-.25.29-.32.07-.04.19-.11.27-.13.14-.04.23-.06.42-.06.15,0,.18,0,.28.02.17.04.27.08.45.18.1.06.15.09.15.1,0,0,0,.02-.02.03-.09.12-.09.12-.14.09-.15-.1-.35-.18-.54-.22-.23-.04-.51.03-.64.16-.08.08-.11.16-.1.26.01.16.13.27.49.43.16.07.19.09.3.14.15.07.44.22.51.26.21.14.33.34.33.55,0,.1,0,.15-.06.25-.05.1-.11.19-.21.28-.08.08-.14.12-.25.18-.15.08-.24.1-.44.13-.11.01-.32.02-.38.01ZM54.66,16.74c-.2-.03-.32-.07-.47-.14-.29-.14-.49-.34-.63-.63-.1-.21-.14-.38-.14-.65,0-.25.02-.38.1-.57.09-.22.18-.34.36-.5.2-.18.41-.29.67-.34.08-.02.11-.02.27-.02.21,0,.28.01.45.06.1.03.29.12.36.17.21.15.35.32.42.51.05.12.06.2.06.37v.14s-.02.02-.02.02l-.02.02h-1.02c-.83,0-1.02,0-1.03,0-.01.01-.01.15,0,.31.02.22.05.34.11.47.09.19.21.32.4.42.15.08.25.11.44.12.12,0,.24,0,.4-.04.12-.03.17-.04.29-.1.13-.06.14-.07.3-.22.04-.03.08-.07.1-.08.05-.02.08,0,.08.03,0,.02-.03.1-.05.11,0,0-.02.02-.04.05-.08.12-.26.27-.42.34-.16.08-.26.11-.44.14-.12.02-.44.02-.53,0M55.55,15.05h.03s0-.08,0-.08c0-.09-.01-.25-.03-.32-.05-.21-.2-.4-.38-.49-.14-.06-.34-.09-.47-.06-.16.03-.32.12-.42.23-.13.15-.2.29-.26.54-.04.18-.04.16-.01.18.02.01.1.01.77.01.53,0,.75,0,.77-.01ZM45.99,16.7s-.05-.01-.14-.24c-.03-.09-.08-.19-.09-.22-.02-.04-.05-.12-.07-.18-.14-.37-.38-.99-.44-1.13-.03-.07-.09-.21-.12-.3-.17-.43-.22-.57-.29-.75-.09-.24-.25-.63-.26-.65,0-.01-.01-.02-.01-.03,0,0-.03-.09-.07-.19-.04-.1-.11-.28-.15-.39-.04-.11-.1-.27-.13-.34-.03-.07-.09-.24-.14-.36-.05-.12-.11-.27-.13-.33-.02-.06-.06-.16-.09-.22-.02-.07-.05-.13-.06-.15-.02-.05-.02-.07,0-.08.01,0,.16,0,.34,0,.29,0,.32,0,.34.01.02.02.04.05.08.15.03.08.18.48.21.56.05.14.11.29.14.37.04.11.16.41.35.91.08.21.16.44.19.49.13.35.22.58.39,1.03.02.07.08.21.12.31.04.11.1.25.12.32.03.07.06.15.07.19.01.03.03.09.05.12.01.03.03.08.05.11.01.03.03.06.03.07,0,0,.02.04.03.08.02.06.08.15.09.14,0,0,.01-.04.02-.07.01-.04.03-.1.05-.14.02-.04.04-.1.05-.13.02-.07.04-.12.05-.15,0,0,.03-.09.07-.19.03-.09.09-.25.12-.34.13-.35.21-.6.32-.93.03-.1.09-.25.12-.33.09-.24.29-.8.4-1.12.05-.16.11-.33.13-.38.05-.14.17-.45.19-.53.03-.1.12-.34.14-.38.02-.05.03-.05.2-.05.15,0,.15,0,.08.19-.05.13-.09.23-.19.51-.1.27-.23.63-.31.83-.02.05-.07.2-.12.32-.04.12-.09.27-.11.32s-.06.15-.08.22c-.02.07-.05.14-.06.15s-.03.08-.05.16c-.02.07-.06.18-.08.24-.02.06-.05.14-.07.19s-.04.11-.05.14c-.05.12-.22.58-.31.85-.03.07-.06.16-.07.19-.01.03-.05.12-.08.21-.11.3-.15.42-.19.5-.02.05-.05.13-.07.18-.06.16-.09.22-.11.23-.02.01-.33.02-.36.01ZM48.58,16.67s-.03-.02-.03-.04c0-.04,0-2.7,0-2.72,0-.01.05-.01.26-.01.24,0,.26,0,.27.01.01.01.02.06.01,1.39,0,.75,0,1.37,0,1.38,0,0-.08,0-.25,0-.22,0-.24,0-.27-.02M21.49,16.14c-.06-.03-.1-.06-.09-.06,0,0,.04.02.08.04.04.02.07.04.06.04,0,0-.03-.01-.05-.02M21.32,16.05s-.09-.05-.14-.08c-.05-.03-.09-.05-.1-.05,0,0-.02,0-.03-.02-.01-.01-.06-.04-.11-.07-.15-.09-.36-.22-.46-.28-.09-.06-.19-.12-.36-.22-.12-.07-.21-.12-.4-.21-.17-.08-.37-.2-.46-.25-.02,0-.1-.06-.19-.11-.31-.18-.46-.28-.61-.41-.08-.07-.23-.22-.29-.3-.1-.12-.23-.34-.36-.59-.05-.1-.12-.23-.15-.28-.08-.14-.2-.35-.23-.38-.01-.01-.06-.1-.12-.18-.1-.16-.22-.33-.29-.42-.07-.08-.36-.45-.4-.5-.02-.03-.09-.11-.15-.18-.06-.07-.12-.15-.14-.17-.07-.09-.22-.26-.38-.43-.22-.23-.63-.64-.72-.72-.2-.18-.54-.45-.94-.75-.1-.08-.13-.1-.28-.19-.03-.02-.17-.11-.31-.21-.46-.31-1.06-.7-1.08-.72-.01,0-.09-.06-.17-.11-.16-.11-.28-.18-.39-.24-.09-.05-.43-.26-.52-.31-.14-.08-.33-.19-.51-.28-.22-.11-.36-.18-.51-.26-.06-.04-.13-.07-.15-.08-.14-.08-.39-.24-.46-.29-.03-.03-.15-.09-.17-.09,0,0-.03-.01-.04-.02-.04-.03-.12-.07-.19-.08-.03,0-.12-.02-.21-.03-.09-.01-.22-.03-.31-.04-.08-.01-.22-.03-.31-.04-.41-.05-.65-.11-.93-.24-.16-.07-.29-.15-.4-.26-.06-.05-.09-.09-.1-.13-.03-.06-.02-.07.04-.06.02,0,.19,0,.39.01.48.01.61.02.83.08.27.07.45.13.83.29.32.14.52.24,1.01.54.11.07.19.12.47.3.07.05.16.1.19.12.17.11.31.2.5.34.04.03.1.07.14.1.04.03.09.06.11.08.05.04.05.04.19.14.06.04.16.11.22.15.18.12.2.14.22.15,0,0,.1.07.2.13.1.07.22.15.26.18.08.06.52.36.56.38.03.02.09.06.24.17.06.04.17.12.24.17.08.05.15.11.16.12.01.01.05.04.09.07.04.03.12.08.17.12.1.07.2.14.38.29.05.04.13.1.18.13.04.03.14.1.21.16.07.06.19.15.27.2.16.11.3.22.37.28.03.02.07.06.09.08.03.02.1.09.17.16.07.07.16.15.2.18.28.25.59.56.76.77.15.19.21.26.37.43.17.19.34.41.42.54.23.38.35.6.42.77.08.19.16.33.28.48.13.17.26.29.62.58.04.04.08.07.08.07,0,0,.09.07.2.15.34.25.36.26.45.34.05.04.14.11.21.15.06.04.15.1.19.13.14.1.27.19.28.19,0,0,.02.01.04.03.06.05.21.15.29.2.04.02.1.06.14.08.04.02.1.07.14.09.13.08.28.17.27.17,0,0-.03-.01-.06-.03ZM10.96,14.45s.03-.02.04-.02c.01,0,.01,0-.03.02l-.03.02.02-.02ZM48.79,13.08c-.06-.01-.12-.05-.17-.1-.12-.11-.16-.24-.11-.36.02-.06.05-.11.1-.16.06-.06.14-.1.21-.1.08,0,.13,0,.19.05.1.07.16.16.18.26.02.14-.03.25-.15.33-.08.06-.17.08-.24.07ZM28.77,13.03c-.2-.06-.23-.34-.06-.6.08-.12.18-.19.29-.21.15-.02.25.01.31.11.06.1.01.29-.12.46-.13.17-.32.27-.43.24ZM11.3,12.63c-.23-.02-.43-.09-.6-.22-.09-.07-.14-.12-.2-.2-.12-.17-.16-.34-.18-.66-.03-.55.05-.78.32-.96.16-.11.32-.17.56-.22.13-.03.24-.03.44-.03.25,0,.34,0,.64.07.08.02.15.03.16.03.04,0,.16.04.22.06.06.02.22.09.21.1,0,0-.02,0-.05-.02-.09-.05-.17-.07-.37-.11-.15-.03-.16-.03-.3-.05-.12-.01-.16-.01-.3,0-.19.01-.29.03-.53.08-.49.11-.71.26-.8.54-.02.08-.03.22-.02.43.02.35.04.45.1.59.04.09.12.19.2.26.08.07.26.16.41.2.21.05.43.05,1.12,0,.08,0,.15-.01.15,0,0,0-.03.01-.13.03-.05,0-.17.02-.25.04-.2.03-.37.05-.54.06-.14,0-.18,0-.29,0ZM13.26,11.04c-.02-.12-.09-.39-.11-.47-.02-.07-.13-.27-.2-.39-.08-.14-.24-.35-.38-.51-.16-.19-.48-.51-.71-.72-.08-.07-.19-.17-.24-.22-.09-.09-.22-.21-.29-.26-.02-.02-.08-.07-.14-.12-.16-.15-.21-.19-.29-.24-.04-.03-.12-.09-.18-.14-.06-.05-.18-.14-.27-.2-.09-.07-.2-.15-.25-.19-.05-.04-.15-.1-.22-.15-.21-.14-.36-.25-.55-.43-.09-.09-.14-.14-.17-.18-.02-.04-.02-.06,0-.05.03,0,.16.09.31.19.07.05.14.09.14.09,0,0,.03.01.05.03.02.02.07.05.1.07.03.02.08.06.1.07.02.02.05.04.06.04.01,0,.04.02.06.04.06.04.07.04.02-.02-.03-.03-.05-.05-.05-.06s-.02-.03-.05-.07c-.11-.13-.13-.15-.16-.2-.02-.03-.05-.08-.07-.1-.02-.03-.04-.07-.04-.08,0-.02-.01-.04-.02-.06-.02-.04,0-.03.04.02.02.03.05.07.08.1.02.03.06.07.08.1.05.06.09.1.15.16.06.06.3.29.36.34.09.08.38.27.42.29.03.01.15.05.19.07.02,0,.06.03.09.04.05.02.08.04.05.03-.18-.05-.22-.07-.26-.09-.03-.02-.06-.02-.06,0,0,0,0,.02.02.02.02,0,.03.02.01.03,0,0,0,0,0,.01,0,0,.16.15.27.23.08.06.19.15.26.21.01.01.15.15.31.3.16.16.35.35.43.42.08.08.19.19.25.26.06.07.13.15.15.17.12.13.31.41.42.63.06.12.15.34.18.46.06.21.11.51.1.59,0,.03,0,0-.02-.07Z"/>
              <path class="cls-5" d="M-1.8,26.39c1.57-.29,3.38-.51,5.29-.68,8.43-.73,17.87-.37,26.11.29,12.51.98,24.95,2.63,38.71,2.08.27-.01.54.02.62.08.07.06-.09.12-.37.13-.75.04-1.5.09-2.26.12-1.19.06-2.55.08-3.76.1-.65,0-1.39.01-2.04.01-3.49,0-6.98-.13-10.35-.31-8.85-.48-16.97-1.42-25.71-1.96-8.35-.52-17.88-.65-25.63.32-.58.07-1.05-.09-.59-.18"/>
              <g class="cls-25">
                <g class="cls-15">
                  <path class="cls-3" d="M-1.96,24.4c3.54-.32,7.34-.57,11.05-.62,1.63-.02,3.25,0,4.82.08,2.33.11,4.47.41,6.52.9,2.9.69,5.24,1.73,8.4,2.29,1.58.28,3.07.39,4.52.37,2.11-.02,4.15-.32,6.3-.74,2.95-.58,5.74-1.05,8.55-1.37,1.84-.21,3.7-.33,5.64-.35.96-.01,1.94,0,2.94.04,3.91.15,7.83.13,11.57.2v-.03c-3.73-.07-7.65-.05-11.55-.2-1.01-.04-1.99-.05-2.95-.04-1.95.02-3.81.14-5.66.35-2.82.32-5.61.8-8.56,1.38-2.15.42-4.17.71-6.26.73-1.44.02-2.91-.09-4.48-.37-3.15-.56-5.49-1.6-8.4-2.29-2.06-.49-4.22-.8-6.55-.91-1.58-.07-3.2-.1-4.84-.08-3.72.04-7.52.3-11.07.62v.03Z"/>
                </g>
              </g>
              <g class="cls-25">
                <g class="cls-23">
                  <path class="cls-3" d="M-1.97,24.4c3.45-.31,7.14-.54,10.76-.58,1.71-.02,3.4,0,5.05.08,2.32.11,4.45.42,6.49.9,2.88.68,5.23,1.71,8.38,2.27,1.58.28,3.06.39,4.5.37,2.13-.03,4.18-.32,6.35-.75,2.96-.59,5.75-1.06,8.57-1.38,1.8-.2,3.61-.32,5.5-.34,1.02-.01,2.05,0,3.12.05,3.93.16,7.86.16,11.63.25v-.03c-3.76-.09-7.69-.09-11.61-.25-1.07-.04-2.11-.06-3.13-.05-1.89.02-3.71.14-5.52.34-2.82.32-5.63.8-8.59,1.38-2.16.43-4.2.72-6.31.75-1.43.02-2.9-.09-4.47-.37-3.14-.56-5.47-1.59-8.37-2.27-2.05-.49-4.19-.79-6.52-.91-1.65-.08-3.35-.1-5.06-.08-3.62.04-7.32.28-10.77.58v.03Z"/>
                </g>
              </g>
              <g class="cls-25">
                <g class="cls-12">
                  <path class="cls-3" d="M-1.97,24.38c3.35-.29,6.93-.51,10.45-.55,1.79-.02,3.57,0,5.29.09,2.31.11,4.42.42,6.45.9,2.87.68,5.21,1.69,8.35,2.26,1.57.28,3.05.39,4.48.37,2.15-.03,4.21-.33,6.4-.77,2.97-.6,5.77-1.08,8.59-1.39,1.75-.2,3.52-.31,5.36-.33,1.07-.01,2.17,0,3.3.06,3.94.18,7.9.19,11.69.3v-.03c-3.78-.1-7.73-.12-11.67-.3-1.13-.05-2.23-.07-3.31-.06-1.85.02-3.62.14-5.38.33-2.83.32-5.64.8-8.61,1.39-2.18.44-4.23.74-6.36.76-1.43.02-2.89-.09-4.45-.37-3.12-.56-5.46-1.57-8.35-2.25-2.04-.48-4.17-.79-6.48-.91-1.73-.09-3.51-.11-5.3-.09-3.52.04-7.1.26-10.46.55v.03Z"/>
                </g>
              </g>
              <g class="cls-25">
                <g class="cls-13">
                  <path class="cls-3" d="M-1.97,24.36c3.25-.27,6.71-.47,10.12-.51,1.88-.02,3.74,0,5.54.1,2.29.12,4.4.42,6.42.9,2.86.67,5.2,1.68,8.33,2.24,1.56.28,3.04.39,4.47.37,2.17-.03,4.25-.34,6.45-.78,2.97-.6,5.78-1.09,8.62-1.4,1.71-.19,3.44-.3,5.23-.32,1.12-.01,2.28,0,3.47.07,3.96.19,7.93.23,11.75.35l.02-.03c-3.82-.12-7.79-.15-11.74-.35-1.19-.06-2.35-.08-3.48-.07-1.8.02-3.53.13-5.25.32-2.84.32-5.66.8-8.63,1.4-2.2.44-4.27.75-6.41.78-1.42.02-2.88-.09-4.43-.37-3.11-.55-5.45-1.56-8.32-2.23-2.03-.48-4.14-.79-6.45-.9-1.81-.09-3.67-.12-5.55-.1-3.41.04-6.88.24-10.14.51v.03Z"/>
                </g>
              </g>
              <g class="cls-25">
                <g class="cls-20">
                  <path class="cls-3" d="M-1.96,24.32c3.15-.26,6.49-.44,9.78-.48,1.97-.02,3.92,0,5.81.11,2.28.12,4.38.43,6.38.9,2.85.67,5.19,1.66,8.3,2.22,1.56.28,3.03.39,4.45.37,2.18-.03,4.28-.34,6.5-.8,2.98-.61,5.8-1.1,8.64-1.41,1.67-.18,3.35-.29,5.1-.31,1.17-.01,2.38.01,3.63.08,3.97.21,7.97.26,11.8.39v-.03c-3.82-.13-7.82-.19-11.79-.39-1.25-.07-2.46-.09-3.64-.08-1.75.02-3.44.13-5.12.31-2.85.31-5.67.8-8.66,1.41-2.22.45-4.3.77-6.46.79-1.41.02-2.87-.09-4.42-.37-3.1-.55-5.43-1.54-8.29-2.22-2.01-.48-4.12-.78-6.41-.9-1.89-.1-3.85-.13-5.82-.11-3.3.04-6.65.22-9.8.48v.03Z"/>
                </g>
              </g>
              <g class="cls-25">
                <g class="cls-17">
                  <path class="cls-3" d="M-1.94,24.28c3.03-.24,6.25-.41,9.43-.45,2.07-.02,4.11,0,6.09.12,2.28.12,4.36.43,6.35.9,2.84.66,5.17,1.65,8.27,2.2,1.56.28,3.02.39,4.44.37,2.2-.03,4.31-.35,6.55-.81,2.99-.62,5.81-1.11,8.66-1.42,1.64-.18,3.28-.28,4.99-.3,1.22-.01,2.47.01,3.77.09,3.99.22,8.01.29,11.86.44l.02-.03c-3.86-.15-7.88-.22-11.86-.44-1.3-.07-2.56-.1-3.79-.09-1.72.02-3.37.12-5.01.3-2.86.31-5.69.8-8.68,1.42-2.23.46-4.33.78-6.51.81-1.41.02-2.85-.09-4.4-.37-3.08-.55-5.42-1.53-8.27-2.2-2-.47-4.09-.78-6.38-.9-1.98-.11-4.03-.14-6.1-.12-3.19.04-6.41.21-9.45.45v.03Z"/>
                </g>
              </g>
              <g class="cls-25">
                <g class="cls-24">
                  <path class="cls-3" d="M-1.92,24.23c2.92-.22,6.01-.38,9.07-.42,2.16-.03,4.31.01,6.38.12,2.26.13,4.33.43,6.32.9,2.82.66,5.16,1.63,8.25,2.18,1.55.28,3.01.38,4.42.37,2.22-.03,4.34-.36,6.59-.83,3-.63,5.83-1.12,8.68-1.43,1.6-.17,3.21-.27,4.88-.29,1.27-.01,2.57.02,3.93.1,4.01.24,8.04.32,11.92.49l.02-.03c-3.88-.17-7.92-.25-11.92-.49-1.36-.08-2.67-.11-3.94-.1-1.67.02-3.29.12-4.9.29-2.86.31-5.7.8-8.7,1.43-2.25.47-4.36.8-6.56.82-1.4.02-2.84-.09-4.39-.37-3.07-.55-5.4-1.52-8.24-2.18-1.99-.47-4.07-.78-6.34-.9-2.07-.11-4.23-.15-6.39-.12-3.06.04-6.16.19-9.08.42v.03Z"/>
                </g>
              </g>
              <g class="cls-25">
                <g class="cls-1">
                  <path class="cls-3" d="M-1.89,24.17c2.8-.21,5.75-.35,8.68-.38,2.27-.03,4.53.01,6.69.13,2.25.13,4.31.44,6.28.9,2.81.65,5.15,1.61,8.22,2.16,1.55.27,3,.38,4.41.37,2.24-.03,4.37-.36,6.64-.84,3.01-.64,5.85-1.13,8.71-1.44,1.56-.17,3.14-.26,4.76-.28,1.32-.02,2.67.02,4.07.11,4.02.25,8.08.36,11.98.54l.02-.03c-3.91-.18-7.96-.28-11.98-.54-1.41-.09-2.77-.12-4.09-.11-1.63.02-3.21.12-4.78.28-2.87.31-5.72.8-8.73,1.44-2.26.48-4.39.81-6.6.84-1.4.02-2.83-.09-4.37-.36-3.05-.54-5.39-1.5-8.21-2.16-1.98-.46-4.04-.77-6.31-.9-2.17-.12-4.43-.16-6.7-.13-2.94.03-5.89.18-8.7.38v.03Z"/>
                </g>
              </g>
              <g class="cls-25">
                <g class="cls-16">
                  <path class="cls-3" d="M-1.86,24.1c2.67-.19,5.49-.32,8.29-.35,2.38-.03,4.75.01,7.01.15,2.24.13,4.29.44,6.25.9,2.8.65,5.14,1.6,8.19,2.14,1.54.27,2.99.38,4.39.37,2.25-.03,4.4-.37,6.69-.86,3.02-.64,5.86-1.14,8.73-1.45,1.53-.16,3.07-.25,4.65-.27,1.36-.02,2.76.02,4.22.12,4.04.27,8.11.39,12.04.59l.02-.03c-3.93-.2-8-.32-12.04-.59-1.47-.1-2.87-.14-4.24-.12-1.6.02-3.14.11-4.67.27-2.88.31-5.73.81-8.75,1.45-2.28.49-4.42.83-6.65.85-1.39.02-2.82-.09-4.36-.36-3.04-.54-5.38-1.49-8.19-2.14-1.97-.46-4.02-.77-6.27-.9-2.27-.13-4.64-.17-7.03-.15-2.81.03-5.62.16-8.3.35v.03Z"/>
                </g>
              </g>
              <g class="cls-25">
                <g class="cls-9">
                  <path class="cls-3" d="M-1.83,24.03c2.54-.18,5.22-.29,7.88-.32,2.49-.03,4.98.02,7.35.16,2.23.13,4.27.44,6.21.9,2.79.65,5.13,1.58,8.17,2.12,1.54.27,2.98.38,4.38.36,2.27-.03,4.43-.38,6.73-.87,3.03-.65,5.88-1.15,8.76-1.46,1.49-.16,3-.24,4.55-.26,1.41-.02,2.85.03,4.36.13,4.06.29,8.15.42,12.1.64l.02-.03c-3.95-.22-8.04-.35-12.1-.64-1.52-.11-2.97-.15-4.38-.13-1.56.02-3.07.11-4.57.26-2.89.3-5.74.81-8.77,1.46-2.3.49-4.44.84-6.7.87-1.39.02-2.81-.09-4.34-.36-3.03-.54-5.36-1.47-8.16-2.12-1.95-.46-4-.77-6.24-.9-2.38-.14-4.87-.19-7.37-.16-2.67.03-5.34.15-7.89.32v.03Z"/>
                </g>
              </g>
              <g class="cls-25">
                <g class="cls-21">
                  <path class="cls-3" d="M-1.79,23.95c2.41-.16,4.94-.27,7.46-.29,2.61-.03,5.22.02,7.7.17,2.22.13,4.24.44,6.18.9,2.78.64,5.11,1.56,8.14,2.1,1.54.27,2.97.38,4.37.36,2.29-.03,4.46-.39,6.78-.89,3.03-.66,5.89-1.17,8.78-1.47,1.46-.15,2.93-.24,4.45-.25,1.45-.02,2.94.03,4.5.14,4.07.3,8.19.45,12.16.68l.02-.03c-3.98-.23-8.09-.38-12.16-.68-1.57-.12-3.06-.16-4.52-.15-1.52.02-3,.11-4.47.26-2.9.3-5.76.81-8.8,1.47-2.31.5-4.47.86-6.74.89-1.38.02-2.81-.09-4.33-.36-3.01-.54-5.35-1.46-8.13-2.1-1.94-.45-3.97-.76-6.2-.9-2.48-.15-5.1-.2-7.72-.17-2.53.03-5.05.13-7.47.3v.03Z"/>
                </g>
              </g>
              <g class="cls-25">
                <g class="cls-11">
                  <path class="cls-3" d="M-1.74,23.87c2.27-.15,4.65-.24,7.03-.27,2.73-.03,5.47.02,8.06.18,2.21.14,4.22.45,6.14.89,2.76.64,5.1,1.55,8.11,2.09,1.53.27,2.96.38,4.35.36,2.31-.03,4.49-.39,6.83-.91,3.04-.67,5.9-1.18,8.8-1.48,1.43-.15,2.87-.23,4.35-.25,1.49-.02,3.02.03,4.63.16,4.09.32,8.22.48,12.22.73l.02-.03c-4-.25-8.13-.42-12.22-.73-1.62-.12-3.16-.18-4.65-.16-1.49.02-2.94.1-4.37.25-2.91.3-5.77.81-8.82,1.48-2.33.51-4.5.87-6.78.9-1.38.02-2.8-.09-4.32-.36-3-.53-5.33-1.44-8.11-2.08-1.93-.45-3.95-.76-6.17-.9-2.6-.16-5.34-.22-8.08-.19-2.38.03-4.76.12-7.04.27v.03s0,0,0,0Z"/>
                </g>
              </g>
              <g class="cls-25">
                <g class="cls-2">
                  <path class="cls-3" d="M-1.69,23.78c2.13-.13,4.36-.22,6.58-.24,2.86-.03,5.72.03,8.43.2,2.2.14,4.2.45,6.11.89,2.75.63,5.09,1.53,8.09,2.07,1.53.27,2.96.38,4.34.36,2.32-.03,4.52-.4,6.87-.92,3.05-.68,5.92-1.19,8.82-1.49,1.4-.14,2.81-.22,4.26-.24,1.53-.02,3.11.04,4.76.17,4.11.33,8.26.52,12.28.78l.02-.03c-4.02-.26-8.17-.45-12.28-.78-1.66-.13-3.24-.19-4.78-.17-1.46.02-2.87.1-4.28.24-2.92.3-5.79.81-8.85,1.49-2.35.52-4.53.89-6.83.92-1.37.02-2.79-.09-4.31-.36-2.98-.53-5.32-1.43-8.08-2.07-1.92-.44-3.92-.76-6.13-.9-2.71-.17-5.59-.23-8.45-.2-2.23.03-4.46.11-6.59.24v.03Z"/>
                </g>
              </g>
              <g class="cls-25">
                <g class="cls-22">
                  <path class="cls-3" d="M-1.64,23.69c1.99-.12,4.06-.19,6.14-.22,2.98-.03,5.98.03,8.81.22,2.19.14,4.18.45,6.07.89,2.74.63,5.08,1.52,8.06,2.05,1.53.27,2.95.38,4.33.36,2.34-.03,4.55-.41,6.92-.94,3.06-.69,5.93-1.2,8.84-1.5,1.37-.14,2.75-.22,4.17-.23,1.57-.02,3.19.04,4.89.18,4.12.35,8.3.55,12.34.83l.02-.03c-4.05-.28-8.22-.48-12.34-.83-1.71-.14-3.33-.2-4.91-.18-1.43.02-2.81.1-4.18.23-2.92.3-5.8.81-8.87,1.5-2.36.53-4.56.9-6.88.93-1.37.02-2.78-.09-4.3-.36-2.97-.53-5.31-1.41-8.05-2.05-1.91-.44-3.9-.75-6.1-.9-2.83-.18-5.84-.25-8.82-.22-2.08.02-4.15.1-6.14.22v.03Z"/>
                </g>
              </g>
            </g>
          </g>
        </g>
      </g>
    </g>
  </g>
</svg>